<svg xmlns="http://www.w3.org/2000/svg" width="66" height="67" fill="none" viewBox="0 0 66 67"><g clip-path="url(#clip0_2001_776)"><path fill="url(#paint0_linear_2001_776)" fill-rule="evenodd" d="M58.74 33.5C62.7496 33.5 66 30.2496 66 26.24L66 7.76C66 3.75041 62.7496 0.5 58.74 0.5L40.0226 0.499999C36.013 0.499999 32.7627 3.75041 32.7627 7.76L32.7627 26.24C32.7627 30.2496 29.5122 33.5 25.5027 33.5L7.26 33.5C3.2505 33.5 -4.20716e-06 36.7505 -4.38242e-06 40.76L-5.19021e-06 59.24C-5.36547e-06 63.2495 3.25049 66.5 7.25999 66.5L25.9776 66.5C29.9871 66.5 33.2374 63.2495 33.2374 59.24L33.2374 40.76C33.2374 36.7505 36.4878 33.5 40.4974 33.5L58.74 33.5Z" clip-rule="evenodd"/></g><defs><linearGradient id="paint0_linear_2001_776" x1="50.328" x2="5.404" y1="41.337" y2="21.352" gradientUnits="userSpaceOnUse"><stop stop-color="#E4DED3"/><stop offset="1" stop-color="#EFECE6"/></linearGradient><clipPath id="clip0_2001_776"><rect width="66" height="66" fill="#fff" transform="translate(66 0.5) rotate(90)"/></clipPath></defs></svg>